<?xml version="1.0" encoding="UTF-8" standalone="no"?>
<!-- Created with Inkscape (http://www.inkscape.org/) -->

<svg
   width="400mm"
   height="400mm"
   viewBox="0 0 400 400"
   version="1.1"
   id="svg1"
   sodipodi:docname="Kalpa.svg"
   inkscape:version="1.4.3 (0d15f75042, 2025-12-25)"
   xmlns:inkscape="http://www.inkscape.org/namespaces/inkscape"
   xmlns:sodipodi="http://sodipodi.sourceforge.net/DTD/sodipodi-0.dtd"
   xmlns="http://www.w3.org/2000/svg"
   xmlns:svg="http://www.w3.org/2000/svg">
  <sodipodi:namedview
     id="namedview1"
     pagecolor="#ffffff"
     bordercolor="#000000"
     borderopacity="0.25"
     inkscape:showpageshadow="2"
     inkscape:pageopacity="0.0"
     inkscape:pagecheckerboard="0"
     inkscape:deskcolor="#d1d1d1"
     inkscape:document-units="mm"
     inkscape:zoom="0.39108446"
     inkscape:cx="879.6054"
     inkscape:cy="565.09533"
     inkscape:window-width="1920"
     inkscape:window-height="1131"
     inkscape:window-x="0"
     inkscape:window-y="0"
     inkscape:window-maximized="1"
     inkscape:current-layer="layer1" />
  <defs
     id="defs1" />
  <g
     inkscape:label="Layer 1"
     inkscape:groupmode="layer"
     id="layer1">
    <path
       id="path2"
       style="fill:#25ac95;fill-opacity:1;stroke-width:7.29542"
       d="m 122.27471,98.103614 c -0.4871,0.06635 -0.9597,0.304501 -1.31671,0.688317 l -16.52291,17.695499 c -0.6946,0.74635 -0.79197,1.87483 -0.24061,2.73893 l 20.827,32.63772 c -3.36374,6.11104 -6.02501,12.67997 -7.85791,19.57401 l -36.316413,8.73303 c -1.01071,0.24205 -1.728253,1.16608 -1.698953,2.22269 l 0.679635,24.34924 c 0.03208,1.02979 0.755238,1.91036 1.74146,2.12231 l 35.707631,7.77225 c 2.11039,7.8643 5.23764,15.28023 9.30208,22.06917 l -19.65193,32.29356 c -0.54847,0.90252 -0.39299,2.05663 0.3684,2.78194 l 17.47154,16.73472 c 0.73482,0.70158 1.86145,0.81342 2.71843,0.25814 l 31.61576,-20.70691 c 6.42105,3.51355 13.31546,6.23537 20.57222,8.00169 l 8.52342,36.33741 c 0.24007,1.03005 1.15796,1.7359 2.19455,1.70647 l 24.04102,-0.68833 c 1.01071,-0.0289 1.86781,-0.75316 2.08125,-1.76382 l 7.82967,-36.86798 c 7.36809,-2.24012 14.30484,-5.46273 20.67125,-9.5074 l 32.28135,20.14765 c 0.88768,0.55671 2.04179,0.41144 2.76094,-0.35856 l 16.52296,-17.69549 c 0.69904,-0.74855 0.79336,-1.87715 0.24061,-2.73893 l -12.10564,-18.9861 -3.70951,1.30495 c -0.54105,0.19029 -1.13808,-0.001 -1.47241,-0.47325 0,0 -7.68905,-10.73222 -17.6132,-24.59298 -10.77096,22.91302 -33.5265,39.03307 -60.30082,39.79336 -17.28772,0.49089 -33.25718,-5.51925 -45.64678,-15.83131 l 3.46881,-3.51329 c 25.13182,20.82519 62.40762,19.39045 85.84263,-4.34502 23.43504,-23.73545 24.86579,-61.48904 4.30414,-86.94307 l 22.88009,-23.17335 a 6.4073913,6.4895308 6.7027773e-4 1 0 -9.06142,-9.17757 l -22.88009,23.17336 c -25.13204,-20.82516 -62.40773,-19.39044 -85.8428,4.34503 -23.43501,23.73546 -24.8516,61.48906 -4.28997,86.9431 l -3.52542,3.55629 c -9.62754,-11.62899 -15.60315,-26.48552 -16.05576,-42.83343 -0.78454,-28.3433 15.23411,-53.20246 38.89332,-64.80221 l -0.50955,-17.99664 c -4.31826,1.66903 -8.47386,3.6568 -12.41693,5.97976 l -0.016,-0.015 -33.04582,-20.63518 c -0.44485,-0.276699 -0.95665,-0.38032 -1.44412,-0.315463 z m 77.40423,44.081006 c 12.99882,-0.0656 26.02565,4.87858 36.0757,14.81315 a 6.4072213,6.4893581 6.224046e-4 0 0 0.86367,0.87474 c 19.63556,20.35655 19.54157,52.76805 -0.3823,72.94728 -19.91787,20.17321 -51.90983,20.27068 -72.00987,0.40155 a 6.4072213,6.4893581 6.224046e-4 0 0 -0.86356,-0.87475 c -19.63567,-20.35654 -19.54162,-52.76805 0.38229,-72.94731 9.95889,-10.08658 22.93525,-15.14961 35.93412,-15.21466 z m 0.31172,26.01265 c -6.57173,0 -13.14581,2.51633 -18.12284,7.55714 -9.95402,10.08164 -9.95402,26.62861 0,36.71027 9.95407,10.08165 26.2916,10.08165 36.24562,0 9.95402,-10.08163 9.95407,-26.62861 0,-36.71027 -4.97709,-5.04082 -11.55106,-7.55715 -18.12278,-7.55714 z m 0,12.89161 c 3.26573,0 6.53264,1.28192 9.06136,3.8431 5.05751,5.12237 5.05751,13.23279 0,18.35513 -5.0575,5.12234 -13.06528,5.12238 -18.12278,0 -5.05756,-5.12236 -5.05756,-13.23279 0,-18.35513 2.52872,-2.56116 5.79563,-3.8431 9.06142,-3.8431 z"
       inkscape:label="logo" />
  </g>
</svg>
