<?xml version="1.0" encoding="UTF-8" standalone="no"?>
<!-- Created with Inkscape (http://www.inkscape.org/) -->

<svg
   width="400mm"
   height="400mm"
   viewBox="0 0 400 400"
   version="1.1"
   id="svg1"
   sodipodi:docname="openSUSE.svg"
   inkscape:version="1.4.3 (0d15f75042, 2025-12-25)"
   xmlns:inkscape="http://www.inkscape.org/namespaces/inkscape"
   xmlns:sodipodi="http://sodipodi.sourceforge.net/DTD/sodipodi-0.dtd"
   xmlns="http://www.w3.org/2000/svg"
   xmlns:svg="http://www.w3.org/2000/svg">
  <sodipodi:namedview
     id="namedview1"
     pagecolor="#ffffff"
     bordercolor="#000000"
     borderopacity="0.25"
     inkscape:showpageshadow="2"
     inkscape:pageopacity="0.0"
     inkscape:pagecheckerboard="0"
     inkscape:deskcolor="#d1d1d1"
     inkscape:document-units="mm"
     inkscape:zoom="0.39108446"
     inkscape:cx="879.6054"
     inkscape:cy="565.09533"
     inkscape:window-width="1920"
     inkscape:window-height="1131"
     inkscape:window-x="0"
     inkscape:window-y="0"
     inkscape:window-maximized="1"
     inkscape:current-layer="layer1" />
  <defs
     id="defs1" />
  <g
     inkscape:label="Layer 1"
     inkscape:groupmode="layer"
     id="layer1">
    <path
       d="m 213.4634,220.14135 c 0,-4.73366 -3.83772,-8.57222 -8.57223,-8.57222 -23.67231,0 -42.86186,19.18959 -42.86186,42.86193 0,18.93721 15.35159,34.28852 34.28853,34.28852 14.20308,0 25.71678,-11.51261 25.71678,-25.71681 0,-9.4689 -7.67579,-17.14508 -17.14508,-17.14508 -4.7343,0 -8.57219,3.83872 -8.57219,8.57223 m 60.00537,-94.29554 c 14.2031,0 25.7168,-11.51423 25.7168,-25.71681 0,-14.20261 -11.5137,-25.71682 -25.7168,-25.71682 -14.20308,0 -25.71682,11.51421 -25.71682,25.71682 0,14.20258 11.51374,25.71681 25.71682,25.71681 h 60.00538 v -25.71681 c 0,-30.0035 -21.43014,-60.005372 -60.00538,-60.005372 h -60.00537 v 34.288552 c -66.28028,0 -120.012327,53.73047 -120.012327,120.01235 0,56.81167 46.055597,102.86727 102.867247,102.86727 42.60956,0 77.15045,-34.5409 77.15045,-77.15045 0,-4.73368 -3.83771,-8.57223 -8.57223,-8.57223 M 196.31686,134.4187 c 0,30.00349 21.43015,60.00538 60.00538,60.00538 h 34.28856 c 4.7343,0 8.57223,-3.83696 8.57223,-8.57223"
       fill="none"
       stroke="#73ba25"
       stroke-dashoffset="10"
       stroke-width="17.1708"
       id="path1"
       style="stroke:#42cd42;stroke-opacity:1" />
  </g>
</svg>
