<?xml version="1.0" encoding="UTF-8" standalone="no"?>
<!-- Created with Inkscape (http://www.inkscape.org/) -->

<svg
   width="400mm"
   height="400mm"
   viewBox="0 0 400 400"
   version="1.1"
   id="svg1"
   sodipodi:docname="Slowroll.svg"
   inkscape:version="1.4.3 (0d15f75042, 2025-12-25)"
   xmlns:inkscape="http://www.inkscape.org/namespaces/inkscape"
   xmlns:sodipodi="http://sodipodi.sourceforge.net/DTD/sodipodi-0.dtd"
   xmlns="http://www.w3.org/2000/svg"
   xmlns:svg="http://www.w3.org/2000/svg">
  <sodipodi:namedview
     id="namedview1"
     pagecolor="#ffffff"
     bordercolor="#000000"
     borderopacity="0.25"
     inkscape:showpageshadow="2"
     inkscape:pageopacity="0.0"
     inkscape:pagecheckerboard="0"
     inkscape:deskcolor="#d1d1d1"
     inkscape:document-units="mm"
     inkscape:zoom="0.39108446"
     inkscape:cx="879.6054"
     inkscape:cy="565.09533"
     inkscape:window-width="1920"
     inkscape:window-height="1131"
     inkscape:window-x="0"
     inkscape:window-y="0"
     inkscape:window-maximized="1"
     inkscape:current-layer="layer1" />
  <defs
     id="defs1" />
  <g
     inkscape:label="Layer 1"
     inkscape:groupmode="layer"
     id="layer1">
    <g
       transform="matrix(37.782176,0,0,37.782176,-72976.281,-2490.3763)"
       id="g2"
       style="clip-rule:evenodd;fill-rule:evenodd;stroke-linejoin:round;stroke-miterlimit:2">
      <path
         d="m 1933.8,71 c 0,-1.766 1.43,-3.2 3.2,-3.2 1.77,0 3.2,1.434 3.2,3.2 0,1.766 -1.43,3.2 -3.2,3.2 -1.77,0 -3.2,-1.434 -3.2,-3.2 z m 6,0 c 0,-1.545 -1.25,-2.8 -2.8,-2.8 -1.55,0 -2.8,1.255 -2.8,2.8 0,1.104 0.9,2 2,2 1.1,0 2,-0.896 2,-2 0,-0.662 -0.54,-1.2 -1.2,-1.2 -0.66,0 -1.2,0.538 -1.2,1.2 0,0.441 0.36,0.8 0.8,0.8 0.11,0 0.2,0.09 0.2,0.2 0,0.11 -0.09,0.2 -0.2,0.2 -0.66,0 -1.2,-0.538 -1.2,-1.2 0,-0.883 0.72,-1.6 1.6,-1.6 0.88,0 1.6,0.717 1.6,1.6 0,1.325 -1.07,2.4 -2.4,2.4 -0.32,0 -0.62,-0.061 -0.9,-0.173 0.47,0.359 1.06,0.573 1.7,0.573 1.55,0 2.8,-1.255 2.8,-2.8 z"
         style="fill:#ff5b45;fill-opacity:1"
         id="path1-1" />
    </g>
  </g>
</svg>
